<svg xmlns="http://www.w3.org/2000/svg" width="30" height="30" viewBox="0 0 30 30">
  <g id="pista-off" transform="translate(-727 -605)">
    <rect id="box-icon" width="30" height="30" transform="translate(727 605)" fill="#fff" opacity="0"/>
    <g id="Group_303" data-name="Group 303" transform="translate(-757.929 -880.857)" opacity="0.3">
      <path id="Path_9" data-name="Path 9" d="M1502.8,1507.482v1.2a1.685,1.685,0,0,1-1.677,1.677h-2.4a1.747,1.747,0,0,1-1.685-1.807q0-.075.012-.15v-.92Z"/>
      <path id="Path_19" data-name="Path 19" d="M1509.636,1509.15l-18-18a1,1,0,0,0-1.414,1.414l3.569,3.569a6.706,6.706,0,0,0,1.89,7.919c.07.057.141.113.214.167a2.9,2.9,0,0,1,1.092,1.83v.01a.169.169,0,0,1,.067-.01h5.75a.092.092,0,0,1,.048.01v-.01a3.173,3.173,0,0,1,.213-.641l5.157,5.156a1,1,0,0,0,1.414-1.414Z"/>
      <path id="Path_20" data-name="Path 20" d="M1505.2,1494.706a6.713,6.713,0,0,0-8.761-1.583l9.219,9.22A6.707,6.707,0,0,0,1505.2,1494.706Zm-1.676,4.631a.724.724,0,0,1-.719-.719,2.635,2.635,0,0,0-2.633-2.635h0a.719.719,0,1,1,0-1.438,4.083,4.083,0,0,1,4.073,4.073A.724.724,0,0,1,1503.521,1499.337Z"/>
    </g>
  </g>
</svg>
