<svg xmlns="http://www.w3.org/2000/svg" width="30" height="30" viewBox="0 0 30 30">
  <g id="pista-on" transform="translate(-727 -605)">
    <rect id="box-icon" width="30" height="30" transform="translate(727 605)" fill="#b1b1b1" opacity="0"/>
    <g id="lamp" transform="translate(730.5 606.5)">
      <path id="Path_2" data-name="Path 2" d="M11.969,3.313a.719.719,0,0,1-.719-.719V.719a.719.719,0,1,1,1.438,0V2.594A.719.719,0,0,1,11.969,3.313Z" transform="translate(-0.469)" fill="#fff"/>
      <path id="Path_3" data-name="Path 3" d="M18.54,6.059a.719.719,0,0,1-.508-1.228L19.358,3.5a.719.719,0,0,1,1.017,1.017L19.049,5.848A.721.721,0,0,1,18.54,6.059Z" transform="translate(-0.743 -0.137)" fill="#fff"/>
      <path id="Path_4" data-name="Path 4" d="M23.137,12.687H21.262a.719.719,0,0,1,0-1.437h1.875a.719.719,0,0,1,0,1.438Z" transform="translate(-0.856 -0.469)" fill="#fff"/>
      <path id="Path_5" data-name="Path 5" d="M19.866,20.585a.713.713,0,0,1-.508-.211l-1.326-1.326a.719.719,0,0,1,1.017-1.017l1.326,1.326a.719.719,0,0,1-.509,1.228Z" transform="translate(-0.743 -0.743)" fill="#fff"/>
      <path id="Path_6" data-name="Path 6" d="M4.014,20.585a.719.719,0,0,1-.508-1.228l1.326-1.326a.719.719,0,0,1,1.017,1.017L4.523,20.374A.717.717,0,0,1,4.014,20.585Z" transform="translate(-0.137 -0.743)" fill="#fff"/>
      <path id="Path_7" data-name="Path 7" d="M2.594,12.687H.719a.719.719,0,1,1,0-1.437H2.594a.719.719,0,1,1,0,1.438Z" transform="translate(0 -0.469)" fill="#fff"/>
      <path id="Path_8" data-name="Path 8" d="M5.34,6.059a.713.713,0,0,1-.508-.211L3.506,4.522A.719.719,0,0,1,4.523,3.5L5.849,4.831A.719.719,0,0,1,5.34,6.059Z" transform="translate(-0.137 -0.137)" fill="#fff"/>
      <path id="Path_9" data-name="Path 9" d="M14.75,21v1.2a1.685,1.685,0,0,1-1.677,1.677h-2.4A1.747,1.747,0,0,1,9,21.92V21Z" transform="translate(-0.375 -0.875)" fill="#fff"/>
      <path id="Path_10" data-name="Path 10" d="M15.935,6.5a6.709,6.709,0,1,0-8.261,10.57A2.894,2.894,0,0,1,8.766,18.9v.01a.163.163,0,0,1,.067-.01h5.75a.086.086,0,0,1,.048.01V18.9a3.2,3.2,0,0,1,1.227-1.917A6.712,6.712,0,0,0,15.935,6.5ZM15.3,12.188a.724.724,0,0,1-.719-.719,2.634,2.634,0,0,0-2.635-2.635.719.719,0,0,1,0-1.438,4.082,4.082,0,0,1,4.073,4.073A.724.724,0,0,1,15.3,12.188Z" transform="translate(-0.208 -0.208)" fill="#fff"/>
      <path id="Path_11" data-name="Path 11" d="M8.93,19.5H9a.163.163,0,0,0-.067.01Z" transform="translate(-0.372 -0.812)" fill="#fff"/>
      <path id="Path_12" data-name="Path 12" d="M15.048,19.5v.01A.086.086,0,0,0,15,19.5Z" transform="translate(-0.625 -0.812)" fill="#fff"/>
    </g>
  </g>
</svg>
