<?xml version="1.0" encoding="iso-8859-1"?>
<!-- Generator: Adobe Illustrator 19.0.0, SVG Export Plug-In . SVG Version: 6.00 Build 0)  -->
<svg version="1.1" id="Capa_1" xmlns="http://www.w3.org/2000/svg" xmlns:xlink="http://www.w3.org/1999/xlink" x="0px" y="0px"
	 viewBox="0 0 511.999 511.999" style="enable-background:new 0 0 511.999 511.999;" xml:space="preserve">
<g>
	<path style="fill:#EBAF4B;" d="M1.156,115.021c-3.051,35.135,0.423,116.205,97.451,116.205l24.774-57.806
		c-12.44-4.806-63.717-26.646-108.417-64.076C9.751,104.978,1.744,108.247,1.156,115.021z"/>
	<path style="fill:#EBAF4B;" d="M510.842,115.021c3.051,35.135-0.423,116.205-97.451,116.205l-24.774-57.806
		c12.44-4.806,63.717-26.646,108.417-64.076C502.247,104.978,510.254,108.247,510.842,115.021z"/>
</g>
<path style="fill:#FFDC64;" d="M387.036,144.626c0.955-9.864,0.803-20.054-0.641-30.479C377.587,50.551,322.585,1.399,258.396,0.031
	c-74.293-1.584-135.015,58.166-135.015,132.098c0,3.395,0.133,6.757,0.393,10.083c1.582,20.289-3.536,40.447-15.478,56.925
	c-24.804,34.224-37.975,77.419-33.65,123.823c7.903,84.803,75.561,153.793,160.218,163.126
	c109.583,12.08,202.323-73.398,202.323-180.537c0-39.544-12.655-76.114-34.115-105.93
	C391.556,183.619,385.137,164.248,387.036,144.626z"/>
<path style="fill:#FFC850;" d="M140.711,322.96c-4.324-46.404,8.847-89.599,33.65-123.823c11.943-16.478,17.06-36.636,15.478-56.924
	c-0.26-3.327-0.393-6.689-0.393-10.083c0-61.482,42.045-113.023,98.914-127.772c-9.664-2.538-19.674-4.107-29.964-4.327
	c-74.292-1.584-135.015,58.166-135.015,132.098c0,3.395,0.133,6.757,0.393,10.083c1.583,20.289-3.535,40.447-15.478,56.924
	c-24.803,34.224-37.974,77.419-33.65,123.823c7.903,84.803,75.561,153.793,160.218,163.126c18.512,2.041,36.522,1.237,53.706-1.924
	C209.78,469.796,148.224,403.581,140.711,322.96z"/>
<g>
	<path style="fill:#EDEBED;" d="M392.708,319.938l-41.852-27.901c-2.62-1.747-6.109-1.401-8.336,0.825l-49.305,49.305
		c-2.58,2.58-6.763,2.58-9.343,0l-40.074-40.074c-2.631-2.631-6.914-2.571-9.471,0.132l-38.836,41.055
		c-2.557,2.703-6.84,2.762-9.471,0.132l-58.586-58.586c-2.325-2.325-6.005-2.586-8.635-0.614l-24.284,18.213
		c-2.443,1.832-5.823,1.751-8.175-0.195l-25.935-21.457c-4.159-3.441-10.572-0.723-10.841,4.668
		c-0.026,0.516-0.051,1.032-0.074,1.548c-5.426,117.67,82.671,221.82,200.425,224.936c116.577,3.085,212.05-90.497,212.05-206.377
		c0-1.957-0.015-3.913-0.044-5.867c-0.073-4.88-5.212-8.021-9.578-5.838l-53.013,26.507
		C397.206,321.41,394.68,321.253,392.708,319.938z"/>
	<path style="fill:#EDEBED;" d="M461.622,289.029c0.003,0.057,0.001,0.114,0.004,0.171l0.336-0.168L461.622,289.029z"/>
</g>
<path style="fill:#EB914B;" d="M296.801,173.419c0,18.243-27.608,39.639-41.29,39.639s-41.29-21.395-41.29-39.639
	s27.608-39.639,41.29-39.639C269.193,133.781,296.801,155.176,296.801,173.419z"/>
<g>
	<path style="fill:#4B3F4E;" d="M181.188,140.387L181.188,140.387c9.122,0,16.516-7.395,16.516-16.516v-8.258
		c0-9.122-7.395-16.516-16.516-16.516l0,0c-9.122,0-16.516,7.395-16.516,16.516v8.258
		C164.672,132.993,172.066,140.387,181.188,140.387z"/>
	<path style="fill:#4B3F4E;" d="M329.833,140.387L329.833,140.387c9.122,0,16.516-7.395,16.516-16.516v-8.258
		c0-9.122-7.395-16.516-16.516-16.516l0,0c-9.122,0-16.516,7.395-16.516,16.516v8.258
		C313.317,132.993,320.711,140.387,329.833,140.387z"/>
	<path style="fill:#4B3F4E;" d="M286.021,186.222c5.245-3.859,4.043-12.043-2.152-14.049c-9.943-3.22-20.837-5.36-28.411-5.36
		c-7.557,0-18.411,2.132-28.331,5.341c-6.194,2.004-7.399,10.186-2.157,14.047c9.245,6.811,22.366,11.992,30.54,11.992
		C263.676,198.194,276.778,193.023,286.021,186.222z"/>
</g>
<g>
	<circle style="fill:#FFFFFF;" cx="181.189" cy="115.61" r="8.258"/>
	<circle style="fill:#FFFFFF;" cx="329.829" cy="115.61" r="8.258"/>
</g>
<path style="fill:#DBD9DC;" d="M166.304,323.696l-38.871-38.87c-2.325-2.325-6.005-2.586-8.635-0.614l-24.284,18.213
	c-2.443,1.832-5.823,1.752-8.175-0.195l-25.935-21.457c-4.159-3.441-10.573-0.722-10.842,4.668c-0.026,0.516-0.05,1.032-0.074,1.548
	c-5.426,117.67,82.671,221.82,200.424,224.936c22.169,0.587,43.568-2.341,63.7-8.235
	C234.143,479.979,176.397,408.097,166.304,323.696z"/>
<g>
</g>
<g>
</g>
<g>
</g>
<g>
</g>
<g>
</g>
<g>
</g>
<g>
</g>
<g>
</g>
<g>
</g>
<g>
</g>
<g>
</g>
<g>
</g>
<g>
</g>
<g>
</g>
<g>
</g>
</svg>
