<?xml version="1.0" encoding="utf-8"?>
<!-- Generator: Adobe Illustrator 24.1.2, SVG Export Plug-In . SVG Version: 6.00 Build 0)  -->
<svg version="1.1" id="Capa_1" xmlns="http://www.w3.org/2000/svg" xmlns:xlink="http://www.w3.org/1999/xlink" x="0px" y="0px"
	 viewBox="0 0 29.6 29.6" style="enable-background:new 0 0 29.6 29.6;" xml:space="preserve">
<style type="text/css">
	.st0{fill:#FFFFFF;}
</style>
<path class="st0" d="M25.6,11.5l-0.7-1.8c0,0,1.7-3.9,1.6-4.1l-2.3-2.3C23.9,3.2,20,5,20,5l-1.8-0.7c0,0-1.6-4-1.8-4h-3.3
	c-0.2,0-1.7,4-1.7,4L9.6,5c0,0-4-1.7-4.2-1.6L3.1,5.7c-0.2,0.2,1.7,4,1.7,4l-0.7,1.8c0,0-4.1,1.6-4.1,1.8v3.2c0,0.2,4.1,1.7,4.1,1.7
	L4.8,20c0,0-1.7,3.9-1.6,4.1l2.3,2.3c0.2,0.2,4.1-1.6,4.1-1.6l1.8,0.7c0,0,1.6,4,1.8,4h3.3c0.2,0,1.7-4,1.7-4l1.8-0.7
	c0,0,4,1.7,4.2,1.6l2.3-2.3c0.2-0.2-1.7-4-1.7-4l0.7-1.8c0,0,4.1-1.6,4.1-1.8v-3.2C29.6,12.9,25.6,11.5,25.6,11.5z M14.8,19.5
	c-2.6,0-4.7-2.1-4.7-4.7s2.1-4.6,4.7-4.6s4.7,2.1,4.7,4.6C19.6,17.4,17.4,19.5,14.8,19.5z"/>
</svg>
